G04 #@! TF.GenerationSoftware,KiCad,Pcbnew,no-vcs-found-7591~57~ubuntu16.10.1*
G04 #@! TF.CreationDate,2017-02-05T13:29:21-05:00*
G04 #@! TF.ProjectId,blupoi,626C75706F692E6B696361645F706362,rev?*
G04 #@! TF.FileFunction,Profile,NP*
%FSLAX46Y46*%
G04 Gerber Fmt 4.6, Leading zero omitted, Abs format (unit mm)*
G04 Created by KiCad (PCBNEW no-vcs-found-7591~57~ubuntu16.10.1) date Sun Feb  5 13:29:21 2017*
%MOMM*%
%LPD*%
G01*
G04 APERTURE LIST*
%ADD10C,0.100000*%
%ADD11C,0.150000*%
G04 APERTURE END LIST*
D10*
X-41830000Y-122370000D02*
G75*
G02X-41830000Y-100140000I0J11115000D01*
G01*
X217170000Y-107640000D02*
X217670000Y-107640000D01*
X217670000Y-100140000D02*
X217670000Y-104140000D01*
X-41830000Y-111140000D02*
G75*
G03X-41830000Y-111140000I-3000000J0D01*
G01*
X217670000Y-107640000D02*
X217670000Y-122370000D01*
X-41830000Y-122370000D02*
X217670000Y-122370000D01*
X-41830000Y-100140000D02*
X217670000Y-100140000D01*
X217670000Y-104140000D02*
X217170000Y-104140000D01*
X217170000Y-104140000D02*
X217170000Y-107640000D01*
D11*
X210280000Y-102700000D02*
X209280000Y-102700000D01*
X208280000Y-103200000D02*
X208280000Y-105200000D01*
X209280000Y-102700000D02*
X209280000Y-105200000D01*
X209280000Y-105200000D02*
X208280000Y-105200000D01*
X210280000Y-119700000D02*
X210280000Y-102700000D01*
X208280000Y-119202000D02*
X208280000Y-117200000D01*
X208280000Y-117200000D02*
X209280000Y-117200000D01*
X209280000Y-117200000D02*
X209280000Y-119700000D01*
X209280000Y-119700000D02*
X210280000Y-119700000D01*
X169005500Y-119702000D02*
X170005500Y-119702000D01*
X171005500Y-119202000D02*
X171005500Y-117202000D01*
X170005500Y-119702000D02*
X170005500Y-117202000D01*
X170005500Y-117202000D02*
X171005500Y-117202000D01*
X171005500Y-103200000D02*
X171005500Y-105202000D01*
X171005500Y-105202000D02*
X170005500Y-105202000D01*
X170005500Y-105202000D02*
X170005500Y-102702000D01*
X170005500Y-102702000D02*
X169005500Y-102702000D01*
X169005500Y-102702000D02*
X169005500Y-119702000D01*
X171005500Y-103200000D02*
X208280000Y-103200000D01*
X208280000Y-119200000D02*
X171005500Y-119200000D01*
M02*
