G04 #@! TF.FileFunction,Soldermask,Top*
%FSLAX46Y46*%
G04 Gerber Fmt 4.6, Leading zero omitted, Abs format (unit mm)*
G04 Created by KiCad (PCBNEW 201610010949+7276~55~ubuntu16.04.1-) date Sun Oct  2 12:50:37 2016*
%MOMM*%
%LPD*%
G01*
G04 APERTURE LIST*
%ADD10C,0.100000*%
%ADD11R,0.900000X1.300000*%
%ADD12O,1.500000X2.400000*%
%ADD13R,1.250000X1.350000*%
%ADD14O,1.950000X1.400000*%
%ADD15O,1.350000X1.650000*%
%ADD16R,1.750000X0.800000*%
%ADD17R,1.300000X0.900000*%
%ADD18R,0.900000X0.900000*%
%ADD19R,1.000000X0.900000*%
%ADD20R,0.900000X1.000000*%
%ADD21R,1.200000X1.150000*%
%ADD22R,1.600000X1.150000*%
%ADD23R,1.150000X1.200000*%
%ADD24R,1.512500X1.512500*%
%ADD25R,1.200000X0.600000*%
%ADD26R,0.600000X1.200000*%
%ADD27O,1.400000X0.680000*%
%ADD28R,2.000000X2.550000*%
%ADD29C,0.800000*%
%ADD30C,2.050000*%
%ADD31R,1.000000X0.800000*%
%ADD32R,1.400000X1.650000*%
%ADD33C,0.700000*%
%ADD34R,0.500000X0.700000*%
%ADD35R,0.925000X0.700000*%
%ADD36R,0.700000X0.825000*%
%ADD37R,1.400000X19.400000*%
%ADD38R,3.400000X1.400000*%
%ADD39R,1.400000X2.900000*%
%ADD40C,0.900000*%
%ADD41R,0.900380X1.200100*%
%ADD42R,1.300000X1.300000*%
%ADD43O,0.700000X1.150000*%
%ADD44O,1.150000X0.700000*%
%ADD45O,0.770000X0.320000*%
%ADD46O,2.127200X2.127200*%
%ADD47R,2.127200X2.127200*%
%ADD48R,3.700000X1.400000*%
%ADD49O,2.127200X2.432000*%
%ADD50R,2.127200X2.432000*%
G04 APERTURE END LIST*
D10*
D11*
X353050000Y-101600000D03*
X351550000Y-101600000D03*
X338750000Y-104800000D03*
X340250000Y-104800000D03*
D12*
X65900000Y-108100000D03*
X67600000Y-108100000D03*
X69300000Y-108100000D03*
X69300000Y-112900000D03*
X67600000Y-112900000D03*
X65900000Y-112900000D03*
D13*
X-45275000Y-116875000D03*
X-45275000Y-118325000D03*
X-44125000Y-118325000D03*
X-44125000Y-116875000D03*
D14*
X436337460Y-109800900D03*
X436337460Y-116800900D03*
D15*
X433637460Y-110800900D03*
X433637460Y-115800900D03*
D16*
X433637460Y-112000900D03*
X433637460Y-112650900D03*
X433637460Y-113300900D03*
X433637460Y-113950900D03*
X433637460Y-114600900D03*
D17*
X-35400000Y-120200000D03*
D18*
X-33300000Y-120200000D03*
D19*
X-45200000Y-119700000D03*
X-44100000Y-119700000D03*
X-44150000Y-115500000D03*
X-45250000Y-115500000D03*
D20*
X-40000000Y-118950000D03*
X-40000000Y-120050000D03*
D21*
X29650000Y-118700000D03*
X28150000Y-118700000D03*
X40150000Y-117000000D03*
X38650000Y-117000000D03*
X40150000Y-118500000D03*
X38650000Y-118500000D03*
D19*
X181050000Y-103100000D03*
X182150000Y-103100000D03*
X182150000Y-104400000D03*
X181050000Y-104400000D03*
D20*
X193500000Y-104050000D03*
X193500000Y-102950000D03*
D19*
X181050000Y-105700000D03*
X182150000Y-105700000D03*
D20*
X-6700000Y-118250000D03*
X-6700000Y-119350000D03*
D22*
X-43550000Y-103900000D03*
X-45450000Y-103900000D03*
X-45450000Y-101400000D03*
X-43550000Y-101400000D03*
X-29950000Y-119900000D03*
X-31850000Y-119900000D03*
D21*
X-38550000Y-119900000D03*
X-37050000Y-119900000D03*
D23*
X35800000Y-118350000D03*
X35800000Y-116850000D03*
D11*
X28300000Y-117100000D03*
X29800000Y-117100000D03*
X185150000Y-105700000D03*
X186650000Y-105700000D03*
X185150000Y-104000000D03*
X186650000Y-104000000D03*
X186650000Y-102300000D03*
X185150000Y-102300000D03*
X-12650000Y-119200000D03*
X-11150000Y-119200000D03*
D24*
X-49331250Y-108731250D03*
X-50443750Y-108731250D03*
X-51556250Y-108731250D03*
X-52668750Y-108731250D03*
X-49331250Y-109843750D03*
X-50443750Y-109843750D03*
X-51556250Y-109843750D03*
X-52668750Y-109843750D03*
X-49331250Y-110956250D03*
X-50443750Y-110956250D03*
X-51556250Y-110956250D03*
X-52668750Y-110956250D03*
X-49331250Y-112068750D03*
X-50443750Y-112068750D03*
X-51556250Y-112068750D03*
X-52668750Y-112068750D03*
D25*
X-48000000Y-108200000D03*
X-48000000Y-108600000D03*
X-48000000Y-109000000D03*
X-48000000Y-109400000D03*
X-48000000Y-109800000D03*
X-48000000Y-110200000D03*
X-48000000Y-110600000D03*
X-48000000Y-111000000D03*
X-48000000Y-111400000D03*
X-48000000Y-111800000D03*
X-48000000Y-112200000D03*
X-48000000Y-112600000D03*
D26*
X-48800000Y-113400000D03*
X-49200000Y-113400000D03*
X-49600000Y-113400000D03*
X-50000000Y-113400000D03*
X-50400000Y-113400000D03*
X-50800000Y-113400000D03*
X-51200000Y-113400000D03*
X-51600000Y-113400000D03*
X-52000000Y-113400000D03*
X-52400000Y-113400000D03*
X-52800000Y-113400000D03*
X-53200000Y-113400000D03*
D25*
X-54000000Y-112600000D03*
X-54000000Y-112200000D03*
X-54000000Y-111800000D03*
X-54000000Y-111400000D03*
X-54000000Y-111000000D03*
X-54000000Y-110600000D03*
X-54000000Y-110200000D03*
X-54000000Y-109800000D03*
X-54000000Y-109400000D03*
X-54000000Y-109000000D03*
X-54000000Y-108600000D03*
X-54000000Y-108200000D03*
D26*
X-53200000Y-107400000D03*
X-52800000Y-107400000D03*
X-52400000Y-107400000D03*
X-52000000Y-107400000D03*
X-51600000Y-107400000D03*
X-51200000Y-107400000D03*
X-50800000Y-107400000D03*
X-50400000Y-107400000D03*
X-50000000Y-107400000D03*
X-49600000Y-107400000D03*
X-49200000Y-107400000D03*
X-48800000Y-107400000D03*
D27*
X34200000Y-118700000D03*
X34200000Y-118200000D03*
X34200000Y-117700000D03*
X34200000Y-117200000D03*
X34200000Y-116700000D03*
X31100000Y-116700000D03*
X31100000Y-117200000D03*
X31100000Y-117700000D03*
X31100000Y-118200000D03*
D28*
X32650000Y-117700000D03*
D27*
X31100000Y-118700000D03*
D29*
X-8925000Y-116825000D03*
D30*
X-8925000Y-116825000D03*
D31*
X-10000000Y-119625000D03*
X-10000000Y-118975000D03*
X-10000000Y-118300000D03*
X-7850000Y-118300000D03*
X-7850000Y-118975000D03*
X-7850000Y-119625000D03*
D12*
X118900000Y-108100000D03*
X120600000Y-108100000D03*
X122300000Y-108100000D03*
X122300000Y-112900000D03*
X120600000Y-112900000D03*
X118900000Y-112900000D03*
X113600000Y-108100000D03*
X115300000Y-108100000D03*
X117000000Y-108100000D03*
X117000000Y-112900000D03*
X115300000Y-112900000D03*
X113600000Y-112900000D03*
X108300000Y-108100000D03*
X110000000Y-108100000D03*
X111700000Y-108100000D03*
X111700000Y-112900000D03*
X110000000Y-112900000D03*
X108300000Y-112900000D03*
X97700000Y-108100000D03*
X99400000Y-108100000D03*
X101100000Y-108100000D03*
X101100000Y-112900000D03*
X99400000Y-112900000D03*
X97700000Y-112900000D03*
X92400000Y-108100000D03*
X94100000Y-108100000D03*
X95800000Y-108100000D03*
X95800000Y-112900000D03*
X94100000Y-112900000D03*
X92400000Y-112900000D03*
X87100000Y-108100000D03*
X88800000Y-108100000D03*
X90500000Y-108100000D03*
X90500000Y-112900000D03*
X88800000Y-112900000D03*
X87100000Y-112900000D03*
X81800000Y-108100000D03*
X83500000Y-108100000D03*
X85200000Y-108100000D03*
X85200000Y-112900000D03*
X83500000Y-112900000D03*
X81800000Y-112900000D03*
X76500000Y-108100000D03*
X78200000Y-108100000D03*
X79900000Y-108100000D03*
X79900000Y-112900000D03*
X78200000Y-112900000D03*
X76500000Y-112900000D03*
X55300000Y-108100000D03*
X57000000Y-108100000D03*
X58700000Y-108100000D03*
X58700000Y-112900000D03*
X57000000Y-112900000D03*
X55300000Y-112900000D03*
X50000000Y-108100000D03*
X51700000Y-108100000D03*
X53400000Y-108100000D03*
X53400000Y-112900000D03*
X51700000Y-112900000D03*
X50000000Y-112900000D03*
X44700000Y-108100000D03*
X46400000Y-108100000D03*
X48100000Y-108100000D03*
X48100000Y-112900000D03*
X46400000Y-112900000D03*
X44700000Y-112900000D03*
X39400000Y-108100000D03*
X41100000Y-108100000D03*
X42800000Y-108100000D03*
X42800000Y-112900000D03*
X41100000Y-112900000D03*
X39400000Y-112900000D03*
X28800000Y-108100000D03*
X30500000Y-108100000D03*
X32200000Y-108100000D03*
X32200000Y-112900000D03*
X30500000Y-112900000D03*
X28800000Y-112900000D03*
X23500000Y-108100000D03*
X25200000Y-108100000D03*
X26900000Y-108100000D03*
X26900000Y-112900000D03*
X25200000Y-112900000D03*
X23500000Y-112900000D03*
X18200000Y-108100000D03*
X19900000Y-108100000D03*
X21600000Y-108100000D03*
X21600000Y-112900000D03*
X19900000Y-112900000D03*
X18200000Y-112900000D03*
X7600000Y-108100000D03*
X9300000Y-108100000D03*
X11000000Y-108100000D03*
X11000000Y-112900000D03*
X9300000Y-112900000D03*
X7600000Y-112900000D03*
X2300000Y-108100000D03*
X4000000Y-108100000D03*
X5700000Y-108100000D03*
X5700000Y-112900000D03*
X4000000Y-112900000D03*
X2300000Y-112900000D03*
X-13600000Y-108100000D03*
X-11900000Y-108100000D03*
X-10200000Y-108100000D03*
X-10200000Y-112900000D03*
X-11900000Y-112900000D03*
X-13600000Y-112900000D03*
X-18900000Y-108100000D03*
X-17200000Y-108100000D03*
X-15500000Y-108100000D03*
X-15500000Y-112900000D03*
X-17200000Y-112900000D03*
X-18900000Y-112900000D03*
X-29500000Y-108100000D03*
X-27800000Y-108100000D03*
X-26100000Y-108100000D03*
X-26100000Y-112900000D03*
X-27800000Y-112900000D03*
X-29500000Y-112900000D03*
X-34800000Y-108100000D03*
X-33100000Y-108100000D03*
X-31400000Y-108100000D03*
X-31400000Y-112900000D03*
X-33100000Y-112900000D03*
X-34800000Y-112900000D03*
X-40100000Y-108100000D03*
X-38400000Y-108100000D03*
X-36700000Y-108100000D03*
X-36700000Y-112900000D03*
X-38400000Y-112900000D03*
X-40100000Y-112900000D03*
X-45400000Y-108100000D03*
X-43700000Y-108100000D03*
X-42000000Y-108100000D03*
X-42000000Y-112900000D03*
X-43700000Y-112900000D03*
X-45400000Y-112900000D03*
X-24200000Y-108100000D03*
X-22500000Y-108100000D03*
X-20800000Y-108100000D03*
X-20800000Y-112900000D03*
X-22500000Y-112900000D03*
X-24200000Y-112900000D03*
X-8300000Y-108100000D03*
X-6600000Y-108100000D03*
X-4900000Y-108100000D03*
X-4900000Y-112900000D03*
X-6600000Y-112900000D03*
X-8300000Y-112900000D03*
X-3000000Y-108100000D03*
X-1300000Y-108100000D03*
X400000Y-108100000D03*
X400000Y-112900000D03*
X-1300000Y-112900000D03*
X-3000000Y-112900000D03*
X12900000Y-108100000D03*
X14600000Y-108100000D03*
X16300000Y-108100000D03*
X16300000Y-112900000D03*
X14600000Y-112900000D03*
X12900000Y-112900000D03*
X34100000Y-108100000D03*
X35800000Y-108100000D03*
X37500000Y-108100000D03*
X37500000Y-112900000D03*
X35800000Y-112900000D03*
X34100000Y-112900000D03*
X60600000Y-108100000D03*
X62300000Y-108100000D03*
X64000000Y-108100000D03*
X64000000Y-112900000D03*
X62300000Y-112900000D03*
X60600000Y-112900000D03*
X71200000Y-108100000D03*
X72900000Y-108100000D03*
X74600000Y-108100000D03*
X74600000Y-112900000D03*
X72900000Y-112900000D03*
X71200000Y-112900000D03*
X103000000Y-108100000D03*
X104700000Y-108100000D03*
X106400000Y-108100000D03*
X106400000Y-112900000D03*
X104700000Y-112900000D03*
X103000000Y-112900000D03*
D21*
X338850000Y-103200000D03*
X340350000Y-103200000D03*
D32*
X84900000Y-103500000D03*
X86900000Y-103500000D03*
X222600000Y-103500000D03*
X224600000Y-103500000D03*
D12*
X124200000Y-108100000D03*
X125900000Y-108100000D03*
X127600000Y-108100000D03*
X127600000Y-112900000D03*
X125900000Y-112900000D03*
X124200000Y-112900000D03*
X129500000Y-108100000D03*
X131200000Y-108100000D03*
X132900000Y-108100000D03*
X132900000Y-112900000D03*
X131200000Y-112900000D03*
X129500000Y-112900000D03*
X134800000Y-108100000D03*
X136500000Y-108100000D03*
X138200000Y-108100000D03*
X138200000Y-112900000D03*
X136500000Y-112900000D03*
X134800000Y-112900000D03*
X140100000Y-108100000D03*
X141800000Y-108100000D03*
X143500000Y-108100000D03*
X143500000Y-112900000D03*
X141800000Y-112900000D03*
X140100000Y-112900000D03*
X145400000Y-108100000D03*
X147100000Y-108100000D03*
X148800000Y-108100000D03*
X148800000Y-112900000D03*
X147100000Y-112900000D03*
X145400000Y-112900000D03*
X150700000Y-108100000D03*
X152400000Y-108100000D03*
X154100000Y-108100000D03*
X154100000Y-112900000D03*
X152400000Y-112900000D03*
X150700000Y-112900000D03*
X156000000Y-108100000D03*
X157700000Y-108100000D03*
X159400000Y-108100000D03*
X159400000Y-112900000D03*
X157700000Y-112900000D03*
X156000000Y-112900000D03*
X161300000Y-108100000D03*
X163000000Y-108100000D03*
X164700000Y-108100000D03*
X164700000Y-112900000D03*
X163000000Y-112900000D03*
X161300000Y-112900000D03*
X166600000Y-108100000D03*
X168300000Y-108100000D03*
X170000000Y-108100000D03*
X170000000Y-112900000D03*
X168300000Y-112900000D03*
X166600000Y-112900000D03*
X171900000Y-108100000D03*
X173600000Y-108100000D03*
X175300000Y-108100000D03*
X175300000Y-112900000D03*
X173600000Y-112900000D03*
X171900000Y-112900000D03*
X177200000Y-108100000D03*
X178900000Y-108100000D03*
X180600000Y-108100000D03*
X180600000Y-112900000D03*
X178900000Y-112900000D03*
X177200000Y-112900000D03*
X182500000Y-108100000D03*
X184200000Y-108100000D03*
X185900000Y-108100000D03*
X185900000Y-112900000D03*
X184200000Y-112900000D03*
X182500000Y-112900000D03*
X187800000Y-108100000D03*
X189500000Y-108100000D03*
X191200000Y-108100000D03*
X191200000Y-112900000D03*
X189500000Y-112900000D03*
X187800000Y-112900000D03*
X193100000Y-108100000D03*
X194800000Y-108100000D03*
X196500000Y-108100000D03*
X196500000Y-112900000D03*
X194800000Y-112900000D03*
X193100000Y-112900000D03*
X198400000Y-108100000D03*
X200100000Y-108100000D03*
X201800000Y-108100000D03*
X201800000Y-112900000D03*
X200100000Y-112900000D03*
X198400000Y-112900000D03*
X203700000Y-108100000D03*
X205400000Y-108100000D03*
X207100000Y-108100000D03*
X207100000Y-112900000D03*
X205400000Y-112900000D03*
X203700000Y-112900000D03*
X209000000Y-108100000D03*
X210700000Y-108100000D03*
X212400000Y-108100000D03*
X212400000Y-112900000D03*
X210700000Y-112900000D03*
X209000000Y-112900000D03*
X214300000Y-108100000D03*
X216000000Y-108100000D03*
X217700000Y-108100000D03*
X217700000Y-112900000D03*
X216000000Y-112900000D03*
X214300000Y-112900000D03*
X219600000Y-108100000D03*
X221300000Y-108100000D03*
X223000000Y-108100000D03*
X223000000Y-112900000D03*
X221300000Y-112900000D03*
X219600000Y-112900000D03*
X224900000Y-108100000D03*
X226600000Y-108100000D03*
X228300000Y-108100000D03*
X228300000Y-112900000D03*
X226600000Y-112900000D03*
X224900000Y-112900000D03*
X230200000Y-108100000D03*
X231900000Y-108100000D03*
X233600000Y-108100000D03*
X233600000Y-112900000D03*
X231900000Y-112900000D03*
X230200000Y-112900000D03*
X235500000Y-108100000D03*
X237200000Y-108100000D03*
X238900000Y-108100000D03*
X238900000Y-112900000D03*
X237200000Y-112900000D03*
X235500000Y-112900000D03*
X240800000Y-108100000D03*
X242500000Y-108100000D03*
X244200000Y-108100000D03*
X244200000Y-112900000D03*
X242500000Y-112900000D03*
X240800000Y-112900000D03*
X246100000Y-108100000D03*
X247800000Y-108100000D03*
X249500000Y-108100000D03*
X249500000Y-112900000D03*
X247800000Y-112900000D03*
X246100000Y-112900000D03*
X251400000Y-108100000D03*
X253100000Y-108100000D03*
X254800000Y-108100000D03*
X254800000Y-112900000D03*
X253100000Y-112900000D03*
X251400000Y-112900000D03*
X256700000Y-108100000D03*
X258400000Y-108100000D03*
X260100000Y-108100000D03*
X260100000Y-112900000D03*
X258400000Y-112900000D03*
X256700000Y-112900000D03*
X262000000Y-108100000D03*
X263700000Y-108100000D03*
X265400000Y-108100000D03*
X265400000Y-112900000D03*
X263700000Y-112900000D03*
X262000000Y-112900000D03*
X267300000Y-108100000D03*
X269000000Y-108100000D03*
X270700000Y-108100000D03*
X270700000Y-112900000D03*
X269000000Y-112900000D03*
X267300000Y-112900000D03*
X272600000Y-108100000D03*
X274300000Y-108100000D03*
X276000000Y-108100000D03*
X276000000Y-112900000D03*
X274300000Y-112900000D03*
X272600000Y-112900000D03*
X277900000Y-108100000D03*
X279600000Y-108100000D03*
X281300000Y-108100000D03*
X281300000Y-112900000D03*
X279600000Y-112900000D03*
X277900000Y-112900000D03*
X283200000Y-108100000D03*
X284900000Y-108100000D03*
X286600000Y-108100000D03*
X286600000Y-112900000D03*
X284900000Y-112900000D03*
X283200000Y-112900000D03*
X288500000Y-108100000D03*
X290200000Y-108100000D03*
X291900000Y-108100000D03*
X291900000Y-112900000D03*
X290200000Y-112900000D03*
X288500000Y-112900000D03*
X293800000Y-108100000D03*
X295500000Y-108100000D03*
X297200000Y-108100000D03*
X297200000Y-112900000D03*
X295500000Y-112900000D03*
X293800000Y-112900000D03*
X299100000Y-108100000D03*
X300800000Y-108100000D03*
X302500000Y-108100000D03*
X302500000Y-112900000D03*
X300800000Y-112900000D03*
X299100000Y-112900000D03*
X304400000Y-108100000D03*
X306100000Y-108100000D03*
X307800000Y-108100000D03*
X307800000Y-112900000D03*
X306100000Y-112900000D03*
X304400000Y-112900000D03*
X309700000Y-108100000D03*
X311400000Y-108100000D03*
X313100000Y-108100000D03*
X313100000Y-112900000D03*
X311400000Y-112900000D03*
X309700000Y-112900000D03*
X315000000Y-108100000D03*
X316700000Y-108100000D03*
X318400000Y-108100000D03*
X318400000Y-112900000D03*
X316700000Y-112900000D03*
X315000000Y-112900000D03*
X320300000Y-108100000D03*
X322000000Y-108100000D03*
X323700000Y-108100000D03*
X323700000Y-112900000D03*
X322000000Y-112900000D03*
X320300000Y-112900000D03*
X325600000Y-108100000D03*
X327300000Y-108100000D03*
X329000000Y-108100000D03*
X329000000Y-112900000D03*
X327300000Y-112900000D03*
X325600000Y-112900000D03*
X330900000Y-108100000D03*
X332600000Y-108100000D03*
X334300000Y-108100000D03*
X334300000Y-112900000D03*
X332600000Y-112900000D03*
X330900000Y-112900000D03*
X336200000Y-108100000D03*
X337900000Y-108100000D03*
X339600000Y-108100000D03*
X339600000Y-112900000D03*
X337900000Y-112900000D03*
X336200000Y-112900000D03*
X341500000Y-108100000D03*
X343200000Y-108100000D03*
X344900000Y-108100000D03*
X344900000Y-112900000D03*
X343200000Y-112900000D03*
X341500000Y-112900000D03*
X346800000Y-108100000D03*
X348500000Y-108100000D03*
X350200000Y-108100000D03*
X350200000Y-112900000D03*
X348500000Y-112900000D03*
X346800000Y-112900000D03*
X352100000Y-108100000D03*
X353800000Y-108100000D03*
X355500000Y-108100000D03*
X355500000Y-112900000D03*
X353800000Y-112900000D03*
X352100000Y-112900000D03*
D11*
X186650000Y-100600000D03*
X185150000Y-100600000D03*
D33*
X-28098000Y-103900000D03*
X-27590000Y-101437000D03*
X-25600000Y-103900000D03*
D34*
X189310000Y-105250000D03*
D35*
X188937500Y-104750000D03*
X188937500Y-104250000D03*
X188937500Y-103750000D03*
X188937500Y-103250000D03*
X188937500Y-102750000D03*
X188937500Y-102250000D03*
X188937500Y-101750000D03*
X188937500Y-101250000D03*
X188937500Y-100750000D03*
D36*
X189750000Y-100687500D03*
X190250000Y-100687500D03*
X190750000Y-100687500D03*
X191250000Y-100687500D03*
D35*
X192062500Y-100750000D03*
X192062500Y-101250000D03*
X192062500Y-101750000D03*
X192062500Y-102250000D03*
X192062500Y-102750000D03*
X192062500Y-103250000D03*
X192062500Y-103750000D03*
X192062500Y-104250000D03*
X192062500Y-104750000D03*
X192062500Y-105250000D03*
D36*
X191250000Y-105312500D03*
X190750000Y-105312500D03*
X190250000Y-105312500D03*
X189750000Y-105312500D03*
D35*
X188937500Y-105250000D03*
D37*
X431704500Y-110300000D03*
X431704500Y-110300000D03*
D38*
X430752000Y-119253500D03*
D39*
X429736000Y-117539000D03*
X429736000Y-103061000D03*
D38*
X430752000Y-101346500D03*
D40*
X431704500Y-119253500D03*
X431768000Y-110300000D03*
X431704500Y-101346500D03*
X357727000Y-101346500D03*
X357663500Y-110300000D03*
X357727000Y-119253500D03*
D37*
X357727000Y-110300000D03*
X357727000Y-110300000D03*
D38*
X358679500Y-101346500D03*
X358679500Y-119253500D03*
D39*
X359695500Y-103061000D03*
X359695500Y-117539000D03*
D19*
X347500000Y-101500000D03*
X346400000Y-101500000D03*
X347500000Y-102800000D03*
X346400000Y-102800000D03*
X347500000Y-104100000D03*
X346400000Y-104100000D03*
D11*
X338950000Y-101600000D03*
X340450000Y-101600000D03*
X351550000Y-103200000D03*
X353050000Y-103200000D03*
D41*
X333700000Y-102001120D03*
X334649960Y-102001120D03*
X332750040Y-102001120D03*
X334649960Y-104398880D03*
X333700000Y-104398880D03*
X332750040Y-104398880D03*
D42*
X343150000Y-102450000D03*
X343150000Y-103350000D03*
X344050000Y-102450000D03*
X344050000Y-103350000D03*
D43*
X342850000Y-101425000D03*
X343350000Y-101425000D03*
X343850000Y-101425000D03*
X344350000Y-101425000D03*
D44*
X345075000Y-102150000D03*
X345075000Y-102650000D03*
X345075000Y-103150000D03*
X345075000Y-103650000D03*
D43*
X344350000Y-104375000D03*
X343850000Y-104375000D03*
X343350000Y-104375000D03*
X342850000Y-104375000D03*
D45*
X342125000Y-103650000D03*
D44*
X342125000Y-103150000D03*
X342125000Y-102650000D03*
X342125000Y-102150000D03*
D46*
X-29740000Y-102700000D03*
X-29740000Y-105240000D03*
X-32280000Y-102700000D03*
X-32280000Y-105240000D03*
X-34820000Y-102700000D03*
X-34820000Y-105240000D03*
X-37360000Y-102700000D03*
X-37360000Y-105240000D03*
X-39900000Y-102700000D03*
D47*
X-39900000Y-105240000D03*
D48*
X435900000Y-101400000D03*
X435900000Y-107369000D03*
D49*
X2160000Y-117600000D03*
X4700000Y-117600000D03*
D50*
X7240000Y-117600000D03*
M02*
