G04 #@! TF.FileFunction,Soldermask,Bot*
%FSLAX46Y46*%
G04 Gerber Fmt 4.6, Leading zero omitted, Abs format (unit mm)*
G04 Created by KiCad (PCBNEW 201610010949+7276~55~ubuntu16.04.1-) date Sun Oct  2 12:50:37 2016*
%MOMM*%
%LPD*%
G01*
G04 APERTURE LIST*
%ADD10C,0.100000*%
%ADD11O,1.500000X2.400000*%
%ADD12O,1.950000X1.400000*%
%ADD13O,1.350000X1.650000*%
%ADD14R,0.900000X1.000000*%
%ADD15R,1.000000X0.900000*%
%ADD16R,1.150000X1.200000*%
%ADD17R,1.200000X1.150000*%
%ADD18C,0.800000*%
%ADD19C,0.700000*%
%ADD20R,3.400000X1.400000*%
%ADD21R,1.400000X2.900000*%
%ADD22C,0.900000*%
%ADD23O,2.127200X2.127200*%
%ADD24R,2.127200X2.127200*%
%ADD25O,2.127200X2.432000*%
%ADD26R,2.127200X2.432000*%
G04 APERTURE END LIST*
D10*
D11*
X69300000Y-108100000D03*
X67600000Y-108100000D03*
X65900000Y-108100000D03*
X65900000Y-112900000D03*
X67600000Y-112900000D03*
X69300000Y-112900000D03*
D12*
X436337460Y-109800900D03*
X436337460Y-116800900D03*
D13*
X433637460Y-110800900D03*
X433637460Y-115800900D03*
D14*
X-48500000Y-102950000D03*
X-48500000Y-104050000D03*
X-53300000Y-102950000D03*
X-53300000Y-104050000D03*
D15*
X-45250000Y-117400000D03*
X-44150000Y-117400000D03*
D14*
X-51800000Y-102950000D03*
X-51800000Y-104050000D03*
D16*
X-50200000Y-102500000D03*
X-50200000Y-104000000D03*
D17*
X-43650000Y-115700000D03*
X-45150000Y-115700000D03*
D18*
X-8925000Y-116825000D03*
D11*
X122300000Y-108100000D03*
X120600000Y-108100000D03*
X118900000Y-108100000D03*
X118900000Y-112900000D03*
X120600000Y-112900000D03*
X122300000Y-112900000D03*
X117000000Y-108100000D03*
X115300000Y-108100000D03*
X113600000Y-108100000D03*
X113600000Y-112900000D03*
X115300000Y-112900000D03*
X117000000Y-112900000D03*
X111700000Y-108100000D03*
X110000000Y-108100000D03*
X108300000Y-108100000D03*
X108300000Y-112900000D03*
X110000000Y-112900000D03*
X111700000Y-112900000D03*
X106400000Y-108100000D03*
X104700000Y-108100000D03*
X103000000Y-108100000D03*
X103000000Y-112900000D03*
X104700000Y-112900000D03*
X106400000Y-112900000D03*
X101100000Y-108100000D03*
X99400000Y-108100000D03*
X97700000Y-108100000D03*
X97700000Y-112900000D03*
X99400000Y-112900000D03*
X101100000Y-112900000D03*
X95800000Y-108100000D03*
X94100000Y-108100000D03*
X92400000Y-108100000D03*
X92400000Y-112900000D03*
X94100000Y-112900000D03*
X95800000Y-112900000D03*
X90500000Y-108100000D03*
X88800000Y-108100000D03*
X87100000Y-108100000D03*
X87100000Y-112900000D03*
X88800000Y-112900000D03*
X90500000Y-112900000D03*
X85200000Y-108100000D03*
X83500000Y-108100000D03*
X81800000Y-108100000D03*
X81800000Y-112900000D03*
X83500000Y-112900000D03*
X85200000Y-112900000D03*
X79900000Y-108100000D03*
X78200000Y-108100000D03*
X76500000Y-108100000D03*
X76500000Y-112900000D03*
X78200000Y-112900000D03*
X79900000Y-112900000D03*
X74600000Y-108100000D03*
X72900000Y-108100000D03*
X71200000Y-108100000D03*
X71200000Y-112900000D03*
X72900000Y-112900000D03*
X74600000Y-112900000D03*
X64000000Y-108100000D03*
X62300000Y-108100000D03*
X60600000Y-108100000D03*
X60600000Y-112900000D03*
X62300000Y-112900000D03*
X64000000Y-112900000D03*
X58700000Y-108100000D03*
X57000000Y-108100000D03*
X55300000Y-108100000D03*
X55300000Y-112900000D03*
X57000000Y-112900000D03*
X58700000Y-112900000D03*
X53400000Y-108100000D03*
X51700000Y-108100000D03*
X50000000Y-108100000D03*
X50000000Y-112900000D03*
X51700000Y-112900000D03*
X53400000Y-112900000D03*
X48100000Y-108100000D03*
X46400000Y-108100000D03*
X44700000Y-108100000D03*
X44700000Y-112900000D03*
X46400000Y-112900000D03*
X48100000Y-112900000D03*
X42800000Y-108100000D03*
X41100000Y-108100000D03*
X39400000Y-108100000D03*
X39400000Y-112900000D03*
X41100000Y-112900000D03*
X42800000Y-112900000D03*
X37500000Y-108100000D03*
X35800000Y-108100000D03*
X34100000Y-108100000D03*
X34100000Y-112900000D03*
X35800000Y-112900000D03*
X37500000Y-112900000D03*
X32200000Y-108100000D03*
X30500000Y-108100000D03*
X28800000Y-108100000D03*
X28800000Y-112900000D03*
X30500000Y-112900000D03*
X32200000Y-112900000D03*
X26900000Y-108100000D03*
X25200000Y-108100000D03*
X23500000Y-108100000D03*
X23500000Y-112900000D03*
X25200000Y-112900000D03*
X26900000Y-112900000D03*
X21600000Y-108100000D03*
X19900000Y-108100000D03*
X18200000Y-108100000D03*
X18200000Y-112900000D03*
X19900000Y-112900000D03*
X21600000Y-112900000D03*
X16300000Y-108100000D03*
X14600000Y-108100000D03*
X12900000Y-108100000D03*
X12900000Y-112900000D03*
X14600000Y-112900000D03*
X16300000Y-112900000D03*
X11000000Y-108100000D03*
X9300000Y-108100000D03*
X7600000Y-108100000D03*
X7600000Y-112900000D03*
X9300000Y-112900000D03*
X11000000Y-112900000D03*
X5700000Y-108100000D03*
X4000000Y-108100000D03*
X2300000Y-108100000D03*
X2300000Y-112900000D03*
X4000000Y-112900000D03*
X5700000Y-112900000D03*
X400000Y-108100000D03*
X-1300000Y-108100000D03*
X-3000000Y-108100000D03*
X-3000000Y-112900000D03*
X-1300000Y-112900000D03*
X400000Y-112900000D03*
X-4900000Y-108100000D03*
X-6600000Y-108100000D03*
X-8300000Y-108100000D03*
X-8300000Y-112900000D03*
X-6600000Y-112900000D03*
X-4900000Y-112900000D03*
X-10200000Y-108100000D03*
X-11900000Y-108100000D03*
X-13600000Y-108100000D03*
X-13600000Y-112900000D03*
X-11900000Y-112900000D03*
X-10200000Y-112900000D03*
X-15500000Y-108100000D03*
X-17200000Y-108100000D03*
X-18900000Y-108100000D03*
X-18900000Y-112900000D03*
X-17200000Y-112900000D03*
X-15500000Y-112900000D03*
X-20800000Y-108100000D03*
X-22500000Y-108100000D03*
X-24200000Y-108100000D03*
X-24200000Y-112900000D03*
X-22500000Y-112900000D03*
X-20800000Y-112900000D03*
X-26100000Y-108100000D03*
X-27800000Y-108100000D03*
X-29500000Y-108100000D03*
X-29500000Y-112900000D03*
X-27800000Y-112900000D03*
X-26100000Y-112900000D03*
X-31400000Y-108100000D03*
X-33100000Y-108100000D03*
X-34800000Y-108100000D03*
X-34800000Y-112900000D03*
X-33100000Y-112900000D03*
X-31400000Y-112900000D03*
X-36700000Y-108100000D03*
X-38400000Y-108100000D03*
X-40100000Y-108100000D03*
X-40100000Y-112900000D03*
X-38400000Y-112900000D03*
X-36700000Y-112900000D03*
X-42000000Y-108100000D03*
X-43700000Y-108100000D03*
X-45400000Y-108100000D03*
X-45400000Y-112900000D03*
X-43700000Y-112900000D03*
X-42000000Y-112900000D03*
X127600000Y-108100000D03*
X125900000Y-108100000D03*
X124200000Y-108100000D03*
X124200000Y-112900000D03*
X125900000Y-112900000D03*
X127600000Y-112900000D03*
X132900000Y-108100000D03*
X131200000Y-108100000D03*
X129500000Y-108100000D03*
X129500000Y-112900000D03*
X131200000Y-112900000D03*
X132900000Y-112900000D03*
X138200000Y-108100000D03*
X136500000Y-108100000D03*
X134800000Y-108100000D03*
X134800000Y-112900000D03*
X136500000Y-112900000D03*
X138200000Y-112900000D03*
X143500000Y-108100000D03*
X141800000Y-108100000D03*
X140100000Y-108100000D03*
X140100000Y-112900000D03*
X141800000Y-112900000D03*
X143500000Y-112900000D03*
X148800000Y-108100000D03*
X147100000Y-108100000D03*
X145400000Y-108100000D03*
X145400000Y-112900000D03*
X147100000Y-112900000D03*
X148800000Y-112900000D03*
X154100000Y-108100000D03*
X152400000Y-108100000D03*
X150700000Y-108100000D03*
X150700000Y-112900000D03*
X152400000Y-112900000D03*
X154100000Y-112900000D03*
X159400000Y-108100000D03*
X157700000Y-108100000D03*
X156000000Y-108100000D03*
X156000000Y-112900000D03*
X157700000Y-112900000D03*
X159400000Y-112900000D03*
X164700000Y-108100000D03*
X163000000Y-108100000D03*
X161300000Y-108100000D03*
X161300000Y-112900000D03*
X163000000Y-112900000D03*
X164700000Y-112900000D03*
X170000000Y-108100000D03*
X168300000Y-108100000D03*
X166600000Y-108100000D03*
X166600000Y-112900000D03*
X168300000Y-112900000D03*
X170000000Y-112900000D03*
X175300000Y-108100000D03*
X173600000Y-108100000D03*
X171900000Y-108100000D03*
X171900000Y-112900000D03*
X173600000Y-112900000D03*
X175300000Y-112900000D03*
X180600000Y-108100000D03*
X178900000Y-108100000D03*
X177200000Y-108100000D03*
X177200000Y-112900000D03*
X178900000Y-112900000D03*
X180600000Y-112900000D03*
X185900000Y-108100000D03*
X184200000Y-108100000D03*
X182500000Y-108100000D03*
X182500000Y-112900000D03*
X184200000Y-112900000D03*
X185900000Y-112900000D03*
X191200000Y-108100000D03*
X189500000Y-108100000D03*
X187800000Y-108100000D03*
X187800000Y-112900000D03*
X189500000Y-112900000D03*
X191200000Y-112900000D03*
X196500000Y-108100000D03*
X194800000Y-108100000D03*
X193100000Y-108100000D03*
X193100000Y-112900000D03*
X194800000Y-112900000D03*
X196500000Y-112900000D03*
X201800000Y-108100000D03*
X200100000Y-108100000D03*
X198400000Y-108100000D03*
X198400000Y-112900000D03*
X200100000Y-112900000D03*
X201800000Y-112900000D03*
X207100000Y-108100000D03*
X205400000Y-108100000D03*
X203700000Y-108100000D03*
X203700000Y-112900000D03*
X205400000Y-112900000D03*
X207100000Y-112900000D03*
X212400000Y-108100000D03*
X210700000Y-108100000D03*
X209000000Y-108100000D03*
X209000000Y-112900000D03*
X210700000Y-112900000D03*
X212400000Y-112900000D03*
X217700000Y-108100000D03*
X216000000Y-108100000D03*
X214300000Y-108100000D03*
X214300000Y-112900000D03*
X216000000Y-112900000D03*
X217700000Y-112900000D03*
X223000000Y-108100000D03*
X221300000Y-108100000D03*
X219600000Y-108100000D03*
X219600000Y-112900000D03*
X221300000Y-112900000D03*
X223000000Y-112900000D03*
X228300000Y-108100000D03*
X226600000Y-108100000D03*
X224900000Y-108100000D03*
X224900000Y-112900000D03*
X226600000Y-112900000D03*
X228300000Y-112900000D03*
X233600000Y-108100000D03*
X231900000Y-108100000D03*
X230200000Y-108100000D03*
X230200000Y-112900000D03*
X231900000Y-112900000D03*
X233600000Y-112900000D03*
X238900000Y-108100000D03*
X237200000Y-108100000D03*
X235500000Y-108100000D03*
X235500000Y-112900000D03*
X237200000Y-112900000D03*
X238900000Y-112900000D03*
X244200000Y-108100000D03*
X242500000Y-108100000D03*
X240800000Y-108100000D03*
X240800000Y-112900000D03*
X242500000Y-112900000D03*
X244200000Y-112900000D03*
X249500000Y-108100000D03*
X247800000Y-108100000D03*
X246100000Y-108100000D03*
X246100000Y-112900000D03*
X247800000Y-112900000D03*
X249500000Y-112900000D03*
X254800000Y-108100000D03*
X253100000Y-108100000D03*
X251400000Y-108100000D03*
X251400000Y-112900000D03*
X253100000Y-112900000D03*
X254800000Y-112900000D03*
X260100000Y-108100000D03*
X258400000Y-108100000D03*
X256700000Y-108100000D03*
X256700000Y-112900000D03*
X258400000Y-112900000D03*
X260100000Y-112900000D03*
X265400000Y-108100000D03*
X263700000Y-108100000D03*
X262000000Y-108100000D03*
X262000000Y-112900000D03*
X263700000Y-112900000D03*
X265400000Y-112900000D03*
X270700000Y-108100000D03*
X269000000Y-108100000D03*
X267300000Y-108100000D03*
X267300000Y-112900000D03*
X269000000Y-112900000D03*
X270700000Y-112900000D03*
X276000000Y-108100000D03*
X274300000Y-108100000D03*
X272600000Y-108100000D03*
X272600000Y-112900000D03*
X274300000Y-112900000D03*
X276000000Y-112900000D03*
X281300000Y-108100000D03*
X279600000Y-108100000D03*
X277900000Y-108100000D03*
X277900000Y-112900000D03*
X279600000Y-112900000D03*
X281300000Y-112900000D03*
X286600000Y-108100000D03*
X284900000Y-108100000D03*
X283200000Y-108100000D03*
X283200000Y-112900000D03*
X284900000Y-112900000D03*
X286600000Y-112900000D03*
X291900000Y-108100000D03*
X290200000Y-108100000D03*
X288500000Y-108100000D03*
X288500000Y-112900000D03*
X290200000Y-112900000D03*
X291900000Y-112900000D03*
X297200000Y-108100000D03*
X295500000Y-108100000D03*
X293800000Y-108100000D03*
X293800000Y-112900000D03*
X295500000Y-112900000D03*
X297200000Y-112900000D03*
X302500000Y-108100000D03*
X300800000Y-108100000D03*
X299100000Y-108100000D03*
X299100000Y-112900000D03*
X300800000Y-112900000D03*
X302500000Y-112900000D03*
X307800000Y-108100000D03*
X306100000Y-108100000D03*
X304400000Y-108100000D03*
X304400000Y-112900000D03*
X306100000Y-112900000D03*
X307800000Y-112900000D03*
X313100000Y-108100000D03*
X311400000Y-108100000D03*
X309700000Y-108100000D03*
X309700000Y-112900000D03*
X311400000Y-112900000D03*
X313100000Y-112900000D03*
X318400000Y-108100000D03*
X316700000Y-108100000D03*
X315000000Y-108100000D03*
X315000000Y-112900000D03*
X316700000Y-112900000D03*
X318400000Y-112900000D03*
X323700000Y-108100000D03*
X322000000Y-108100000D03*
X320300000Y-108100000D03*
X320300000Y-112900000D03*
X322000000Y-112900000D03*
X323700000Y-112900000D03*
X329000000Y-108100000D03*
X327300000Y-108100000D03*
X325600000Y-108100000D03*
X325600000Y-112900000D03*
X327300000Y-112900000D03*
X329000000Y-112900000D03*
X334300000Y-108100000D03*
X332600000Y-108100000D03*
X330900000Y-108100000D03*
X330900000Y-112900000D03*
X332600000Y-112900000D03*
X334300000Y-112900000D03*
X339600000Y-108100000D03*
X337900000Y-108100000D03*
X336200000Y-108100000D03*
X336200000Y-112900000D03*
X337900000Y-112900000D03*
X339600000Y-112900000D03*
X344900000Y-108100000D03*
X343200000Y-108100000D03*
X341500000Y-108100000D03*
X341500000Y-112900000D03*
X343200000Y-112900000D03*
X344900000Y-112900000D03*
X350200000Y-108100000D03*
X348500000Y-108100000D03*
X346800000Y-108100000D03*
X346800000Y-112900000D03*
X348500000Y-112900000D03*
X350200000Y-112900000D03*
X355500000Y-108100000D03*
X353800000Y-108100000D03*
X352100000Y-108100000D03*
X352100000Y-112900000D03*
X353800000Y-112900000D03*
X355500000Y-112900000D03*
D19*
X-28098000Y-103900000D03*
X-27590000Y-101437000D03*
X-25600000Y-103900000D03*
D20*
X430752000Y-119253500D03*
D21*
X429736000Y-117539000D03*
X429736000Y-103061000D03*
D20*
X430752000Y-101346500D03*
D22*
X431704500Y-119253500D03*
X431768000Y-110300000D03*
X431704500Y-101346500D03*
X357727000Y-101346500D03*
X357663500Y-110300000D03*
X357727000Y-119253500D03*
D20*
X358679500Y-101346500D03*
X358679500Y-119253500D03*
D21*
X359695500Y-103061000D03*
X359695500Y-117539000D03*
D23*
X-29740000Y-102700000D03*
X-29740000Y-105240000D03*
X-32280000Y-102700000D03*
X-32280000Y-105240000D03*
X-34820000Y-102700000D03*
X-34820000Y-105240000D03*
X-37360000Y-102700000D03*
X-37360000Y-105240000D03*
X-39900000Y-102700000D03*
D24*
X-39900000Y-105240000D03*
D25*
X2160000Y-117600000D03*
X4700000Y-117600000D03*
D26*
X7240000Y-117600000D03*
M02*
