M48
;DRILL file {KiCad 201610010949+7276~55~ubuntu16.04.1-} date Sun Oct  2 12:50:54 2016
;FORMAT={-:-/ absolute / inch / decimal}
FMAT,2
INCH,TZ
T1C0.010
T2C0.012
T3C0.014
T4C0.016
T5C0.020
T6C0.022
T7C0.024
T8C0.040
T9C0.016
%
G90
G05
M72
T1
X-1.1062Y-4.0906
X-1.0862Y-3.9936
X-1.0079Y-4.0906
T2
X-2.1732Y-4.4055
X-2.1674Y-3.9421
X-2.1417Y-4.4685
X-2.1417Y-4.5472
X-2.1378Y-3.9528
X-2.0866Y-4.
X-2.0669Y-4.1339
X-2.0472Y-4.189
X-2.0394Y-4.5787
X-2.0354Y-4.126
X-2.0315Y-4.
X-1.9931Y-4.1931
X-1.9764Y-4.5118
X-1.9528Y-4.6024
X-1.9498Y-4.1525
X-1.9449Y-4.513
X-1.9219Y-4.1671
X-1.9213Y-4.6024
X-1.9134Y-4.5114
X-1.8937Y-4.1929
X-1.8544Y-4.3171
X-1.8071Y-4.3661
X-1.7392Y-4.3888
X-1.6693Y-3.9646
X-1.5984Y-4.6142
X-1.5787Y-4.5039
X-1.5709Y-4.6378
X-1.5669Y-3.9646
X-1.4528Y-4.6378
X-1.4071Y-4.4811
X-0.6654Y-4.7283
X-0.5712Y-4.7264
X-0.5592Y-4.564
X-0.5387Y-4.7264
X-0.5315Y-4.5945
X-0.5157Y-4.6614
X-0.4724Y-4.6535
X-0.4409Y-4.7283
X13.0654Y-3.9382
X13.5112Y-4.0348
X13.5112Y-4.0676
X13.5276Y-4.0512
X13.544Y-4.0348
X17.1575Y-3.9528
T3
X14.0812Y-4.3425
X14.0837Y-3.99
X14.0837Y-4.695
X16.9962Y-3.99
X16.9962Y-4.695
X16.9987Y-4.3425
T4
X7.3937Y-4.0945
X7.5236Y-4.0157
X13.5845Y-4.1294
X13.8435Y-4.1073
T5
X13.6378Y-4.126
T7
X-2.127Y-4.1979
X-2.0736Y-4.3246
X-2.0298Y-4.4122
X-1.986Y-4.2808
X-1.9422Y-4.3684
X-1.8858Y-4.4724
X-1.874Y-4.2402
X-1.8504Y-4.7126
X-1.8386Y-4.0866
X-1.6869Y-4.2008
X-1.6811Y-4.6693
X-1.6575Y-4.5197
X-1.4075Y-4.2062
X-1.1988Y-4.2062
X-0.9902Y-4.2062
X-0.7815Y-4.2062
X-0.6513Y-4.5044
X-0.5728Y-4.2062
X-0.4016Y-4.5118
X-0.3642Y-4.2062
X-0.3543Y-4.6811
X-0.1929Y-4.5118
X-0.1555Y-4.2062
X0.0157Y-4.5118
X0.0531Y-4.2062
X0.2244Y-4.5118
X0.2618Y-4.2062
X0.4331Y-4.5118
X0.4705Y-4.2062
X0.6417Y-4.5118
X0.6791Y-4.2062
X0.8504Y-4.5118
X0.8878Y-4.2062
X1.0591Y-4.5118
X1.0965Y-4.2062
X1.2677Y-4.5118
X1.3051Y-4.2062
X1.4764Y-4.5118
X1.4803Y-4.5591
X1.5138Y-4.2062
X1.5512Y-4.5561
X1.685Y-4.5118
X1.7224Y-4.2062
X1.7598Y-4.5551
X1.8937Y-4.5118
X1.9311Y-4.2062
X2.1024Y-4.5118
X2.1398Y-4.2062
X2.311Y-4.5118
X2.3484Y-4.2062
X2.5197Y-4.5118
X2.5571Y-4.2062
X2.7283Y-4.5118
X2.7657Y-4.2062
X2.937Y-4.5118
X2.9744Y-4.2062
X3.1457Y-4.5118
X3.1831Y-4.2062
X3.2756Y-4.126
X3.3543Y-4.5118
X3.3917Y-4.2062
X3.563Y-4.5118
X3.6004Y-4.2062
X3.7717Y-4.5118
X3.8091Y-4.2062
X3.9803Y-4.5118
X4.0177Y-4.2062
X4.189Y-4.5118
X4.2264Y-4.2062
X4.3976Y-4.5118
X4.435Y-4.2062
X4.6063Y-4.5118
X4.6437Y-4.2062
X4.815Y-4.5118
X4.8524Y-4.2062
X5.0236Y-4.5118
X5.061Y-4.2062
X5.2323Y-4.5118
X5.2697Y-4.2062
X5.4409Y-4.5118
X5.4783Y-4.2062
X5.6496Y-4.5118
X5.687Y-4.2062
X5.8583Y-4.5118
X5.8957Y-4.2062
X6.0669Y-4.5118
X6.1043Y-4.2062
X6.2756Y-4.5118
X6.313Y-4.2062
X6.4843Y-4.5118
X6.5217Y-4.2062
X6.6929Y-4.5118
X6.7303Y-4.2062
X6.9016Y-4.5118
X6.939Y-4.2062
X6.9449Y-4.0591
X7.0768Y-4.2021
X7.1102Y-4.5118
X7.1476Y-4.3504
X7.1476Y-4.5906
X7.1732Y-3.9488
X7.1732Y-4.0236
X7.2047Y-4.5118
X7.315Y-4.5118
X7.4272Y-4.2021
X7.5236Y-4.5118
X7.565Y-4.2062
X7.7362Y-4.5118
X7.7736Y-4.2062
X7.7992Y-4.0512
X7.9449Y-4.5118
X7.9823Y-4.2062
X8.1535Y-4.5118
X8.1909Y-4.2062
X8.3622Y-4.5118
X8.3996Y-4.2062
X8.5709Y-4.5118
X8.6083Y-4.2062
X8.6654Y-4.126
X8.7795Y-4.5118
X8.8169Y-4.2062
X8.9882Y-4.5118
X9.0256Y-4.2062
X9.1969Y-4.5118
X9.2343Y-4.2062
X9.4055Y-4.5118
X9.4429Y-4.2062
X9.6142Y-4.5118
X9.6516Y-4.2062
X9.8228Y-4.5118
X9.8602Y-4.2062
X10.0315Y-4.5118
X10.0689Y-4.2062
X10.2402Y-4.5118
X10.2776Y-4.2062
X10.4488Y-4.5118
X10.4847Y-4.2045
X10.6575Y-4.5118
X10.6949Y-4.2062
X10.8661Y-4.5118
X10.9035Y-4.2062
X11.0748Y-4.5118
X11.1122Y-4.2062
X11.2835Y-4.5118
X11.3209Y-4.2062
X11.4921Y-4.5118
X11.5295Y-4.2062
X11.7008Y-4.5118
X11.7382Y-4.2062
X11.9094Y-4.5118
X11.9469Y-4.2062
X12.1181Y-4.5118
X12.1555Y-4.2062
X12.3268Y-4.5118
X12.3642Y-4.2062
X12.5354Y-4.5118
X12.5728Y-4.2062
X12.7441Y-4.5118
X12.7815Y-4.2062
X12.9528Y-4.5118
X12.9902Y-4.2062
X13.0866Y-3.9724
X13.1378Y-4.0709
X13.1614Y-4.5118
X13.189Y-4.0669
X13.1988Y-4.2062
X13.2323Y-4.1063
X13.3661Y-4.5118
X13.4075Y-4.2062
X13.5787Y-4.5118
X13.6161Y-4.2062
X13.7874Y-4.5118
X13.7953Y-4.122
X13.8248Y-4.2062
X13.9409Y-3.9803
X13.9961Y-4.5118
X13.9961Y-4.5906
T8
X-1.5709Y-4.0433
X-1.5709Y-4.1433
X-1.4709Y-4.0433
X-1.4709Y-4.1433
X-1.3709Y-4.0433
X-1.3709Y-4.1433
X-1.2709Y-4.0433
X-1.2709Y-4.1433
X-1.1709Y-4.0433
X-1.1709Y-4.1433
X0.085Y-4.6299
X0.185Y-4.6299
X0.285Y-4.6299
T9
X-0.3514Y-4.5994
T5
X17.1914Y-4.3229G85X17.1658Y-4.3229
G05
X17.1914Y-4.5985G85X17.1658Y-4.5985
G05
T6
X17.0723Y-4.3681G85X17.0723Y-4.3563
G05
X17.0723Y-4.565G85X17.0723Y-4.5532
G05
T0
M30
