G04 #@! TF.GenerationSoftware,KiCad,Pcbnew,no-vcs-found-7591~57~ubuntu16.10.1*
G04 #@! TF.CreationDate,2017-02-05T13:29:21-05:00*
G04 #@! TF.ProjectId,blupoi,626C75706F692E6B696361645F706362,rev?*
G04 #@! TF.FileFunction,Soldermask,Bot*
G04 #@! TF.FilePolarity,Negative*
%FSLAX46Y46*%
G04 Gerber Fmt 4.6, Leading zero omitted, Abs format (unit mm)*
G04 Created by KiCad (PCBNEW no-vcs-found-7591~57~ubuntu16.10.1) date Sun Feb  5 13:29:21 2017*
%MOMM*%
%LPD*%
G01*
G04 APERTURE LIST*
%ADD10C,0.100000*%
%ADD11R,1.400000X19.400000*%
%ADD12R,3.400000X1.400000*%
%ADD13R,1.400000X2.900000*%
%ADD14C,0.900000*%
%ADD15C,1.000000*%
%ADD16R,1.200000X1.150000*%
%ADD17R,1.150000X1.200000*%
%ADD18O,1.500000X2.400000*%
%ADD19O,1.350000X1.650000*%
%ADD20O,1.950000X1.400000*%
%ADD21R,0.900000X1.000000*%
%ADD22R,1.000000X0.900000*%
%ADD23R,2.127200X2.127200*%
%ADD24O,2.127200X2.127200*%
%ADD25R,2.127200X2.432000*%
%ADD26O,2.127200X2.432000*%
G04 APERTURE END LIST*
D10*
D11*
X210820000Y-111201000D03*
X168529000Y-111201000D03*
D12*
X209804000Y-120154500D03*
D13*
X208788000Y-118440000D03*
X208788000Y-103962000D03*
D12*
X209804000Y-102247500D03*
D14*
X210756500Y-120154500D03*
X210820000Y-111201000D03*
X210756500Y-102247500D03*
X168529000Y-102247500D03*
X168465500Y-111201000D03*
X168529000Y-120154500D03*
D12*
X169481500Y-102247500D03*
X169481500Y-120154500D03*
D13*
X170497500Y-103962000D03*
X170497500Y-118440000D03*
D15*
X7585000Y-106665000D03*
D16*
X14540000Y-101730000D03*
X16040000Y-101730000D03*
D17*
X56480000Y-105270000D03*
X56480000Y-103770000D03*
D18*
X70570000Y-120520000D03*
X68870000Y-120520000D03*
X67170000Y-120520000D03*
X67170000Y-115720000D03*
X68870000Y-115720000D03*
X70570000Y-115720000D03*
D19*
X213200000Y-119030000D03*
X213200000Y-114030000D03*
D20*
X215900000Y-120030000D03*
X215900000Y-113030000D03*
D21*
X58180000Y-105320000D03*
X58180000Y-104220000D03*
X53380000Y-105320000D03*
X53380000Y-104220000D03*
D22*
X15540000Y-103430000D03*
X14440000Y-103430000D03*
D21*
X54880000Y-105320000D03*
X54880000Y-104220000D03*
D18*
X123570000Y-120520000D03*
X121870000Y-120520000D03*
X120170000Y-120520000D03*
X120170000Y-115720000D03*
X121870000Y-115720000D03*
X123570000Y-115720000D03*
X118270000Y-120520000D03*
X116570000Y-120520000D03*
X114870000Y-120520000D03*
X114870000Y-115720000D03*
X116570000Y-115720000D03*
X118270000Y-115720000D03*
X112970000Y-120520000D03*
X111270000Y-120520000D03*
X109570000Y-120520000D03*
X109570000Y-115720000D03*
X111270000Y-115720000D03*
X112970000Y-115720000D03*
X107670000Y-120520000D03*
X105970000Y-120520000D03*
X104270000Y-120520000D03*
X104270000Y-115720000D03*
X105970000Y-115720000D03*
X107670000Y-115720000D03*
X102370000Y-120520000D03*
X100670000Y-120520000D03*
X98970000Y-120520000D03*
X98970000Y-115720000D03*
X100670000Y-115720000D03*
X102370000Y-115720000D03*
X97070000Y-120520000D03*
X95370000Y-120520000D03*
X93670000Y-120520000D03*
X93670000Y-115720000D03*
X95370000Y-115720000D03*
X97070000Y-115720000D03*
X91770000Y-120520000D03*
X90070000Y-120520000D03*
X88370000Y-120520000D03*
X88370000Y-115720000D03*
X90070000Y-115720000D03*
X91770000Y-115720000D03*
X86470000Y-120520000D03*
X84770000Y-120520000D03*
X83070000Y-120520000D03*
X83070000Y-115720000D03*
X84770000Y-115720000D03*
X86470000Y-115720000D03*
X81170000Y-120520000D03*
X79470000Y-120520000D03*
X77770000Y-120520000D03*
X77770000Y-115720000D03*
X79470000Y-115720000D03*
X81170000Y-115720000D03*
X75870000Y-120520000D03*
X74170000Y-120520000D03*
X72470000Y-120520000D03*
X72470000Y-115720000D03*
X74170000Y-115720000D03*
X75870000Y-115720000D03*
X65270000Y-120520000D03*
X63570000Y-120520000D03*
X61870000Y-120520000D03*
X61870000Y-115720000D03*
X63570000Y-115720000D03*
X65270000Y-115720000D03*
X59970000Y-120520000D03*
X58270000Y-120520000D03*
X56570000Y-120520000D03*
X56570000Y-115720000D03*
X58270000Y-115720000D03*
X59970000Y-115720000D03*
X54670000Y-120520000D03*
X52970000Y-120520000D03*
X51270000Y-120520000D03*
X51270000Y-115720000D03*
X52970000Y-115720000D03*
X54670000Y-115720000D03*
X49370000Y-120520000D03*
X47670000Y-120520000D03*
X45970000Y-120520000D03*
X45970000Y-115720000D03*
X47670000Y-115720000D03*
X49370000Y-115720000D03*
X44070000Y-120520000D03*
X42370000Y-120520000D03*
X40670000Y-120520000D03*
X40670000Y-115720000D03*
X42370000Y-115720000D03*
X44070000Y-115720000D03*
X38770000Y-120520000D03*
X37070000Y-120520000D03*
X35370000Y-120520000D03*
X35370000Y-115720000D03*
X37070000Y-115720000D03*
X38770000Y-115720000D03*
X33470000Y-120520000D03*
X31770000Y-120520000D03*
X30070000Y-120520000D03*
X30070000Y-115720000D03*
X31770000Y-115720000D03*
X33470000Y-115720000D03*
X28170000Y-120520000D03*
X26470000Y-120520000D03*
X24770000Y-120520000D03*
X24770000Y-115720000D03*
X26470000Y-115720000D03*
X28170000Y-115720000D03*
X22870000Y-120520000D03*
X21170000Y-120520000D03*
X19470000Y-120520000D03*
X19470000Y-115720000D03*
X21170000Y-115720000D03*
X22870000Y-115720000D03*
X17570000Y-120520000D03*
X15870000Y-120520000D03*
X14170000Y-120520000D03*
X14170000Y-115720000D03*
X15870000Y-115720000D03*
X17570000Y-115720000D03*
X12270000Y-120520000D03*
X10570000Y-120520000D03*
X8870000Y-120520000D03*
X8870000Y-115720000D03*
X10570000Y-115720000D03*
X12270000Y-115720000D03*
X6970000Y-120520000D03*
X5270000Y-120520000D03*
X3570000Y-120520000D03*
X3570000Y-115720000D03*
X5270000Y-115720000D03*
X6970000Y-115720000D03*
X1670000Y-120520000D03*
X-30000Y-120520000D03*
X-1730000Y-120520000D03*
X-1730000Y-115720000D03*
X-30000Y-115720000D03*
X1670000Y-115720000D03*
X-3630000Y-120520000D03*
X-5330000Y-120520000D03*
X-7030000Y-120520000D03*
X-7030000Y-115720000D03*
X-5330000Y-115720000D03*
X-3630000Y-115720000D03*
X-8930000Y-120520000D03*
X-10630000Y-120520000D03*
X-12330000Y-120520000D03*
X-12330000Y-115720000D03*
X-10630000Y-115720000D03*
X-8930000Y-115720000D03*
X-14230000Y-120520000D03*
X-15930000Y-120520000D03*
X-17630000Y-120520000D03*
X-17630000Y-115720000D03*
X-15930000Y-115720000D03*
X-14230000Y-115720000D03*
X-19530000Y-120520000D03*
X-21230000Y-120520000D03*
X-22930000Y-120520000D03*
X-22930000Y-115720000D03*
X-21230000Y-115720000D03*
X-19530000Y-115720000D03*
X-24830000Y-120520000D03*
X-26530000Y-120520000D03*
X-28230000Y-120520000D03*
X-28230000Y-115720000D03*
X-26530000Y-115720000D03*
X-24830000Y-115720000D03*
X-30130000Y-120520000D03*
X-31830000Y-120520000D03*
X-33530000Y-120520000D03*
X-33530000Y-115720000D03*
X-31830000Y-115720000D03*
X-30130000Y-115720000D03*
X-35430000Y-120520000D03*
X-37130000Y-120520000D03*
X-38830000Y-120520000D03*
X-38830000Y-115720000D03*
X-37130000Y-115720000D03*
X-35430000Y-115720000D03*
X-40730000Y-120520000D03*
X-42430000Y-120520000D03*
X-44130000Y-120520000D03*
X-44130000Y-115720000D03*
X-42430000Y-115720000D03*
X-40730000Y-115720000D03*
X128870000Y-120520000D03*
X127170000Y-120520000D03*
X125470000Y-120520000D03*
X125470000Y-115720000D03*
X127170000Y-115720000D03*
X128870000Y-115720000D03*
X134170000Y-120520000D03*
X132470000Y-120520000D03*
X130770000Y-120520000D03*
X130770000Y-115720000D03*
X132470000Y-115720000D03*
X134170000Y-115720000D03*
X139470000Y-120520000D03*
X137770000Y-120520000D03*
X136070000Y-120520000D03*
X136070000Y-115720000D03*
X137770000Y-115720000D03*
X139470000Y-115720000D03*
X144770000Y-120520000D03*
X143070000Y-120520000D03*
X141370000Y-120520000D03*
X141370000Y-115720000D03*
X143070000Y-115720000D03*
X144770000Y-115720000D03*
X150070000Y-120520000D03*
X148370000Y-120520000D03*
X146670000Y-120520000D03*
X146670000Y-115720000D03*
X148370000Y-115720000D03*
X150070000Y-115720000D03*
X155370000Y-120520000D03*
X153670000Y-120520000D03*
X151970000Y-120520000D03*
X151970000Y-115720000D03*
X153670000Y-115720000D03*
X155370000Y-115720000D03*
X160670000Y-120520000D03*
X158970000Y-120520000D03*
X157270000Y-120520000D03*
X157270000Y-115720000D03*
X158970000Y-115720000D03*
X160670000Y-115720000D03*
X165970000Y-120520000D03*
X164270000Y-120520000D03*
X162570000Y-120520000D03*
X162570000Y-115720000D03*
X164270000Y-115720000D03*
X165970000Y-115720000D03*
D23*
X72390000Y-109220000D03*
D24*
X72390000Y-106680000D03*
X74930000Y-109220000D03*
X74930000Y-106680000D03*
X77470000Y-109220000D03*
X77470000Y-106680000D03*
X80010000Y-109220000D03*
X80010000Y-106680000D03*
X82550000Y-109220000D03*
X82550000Y-106680000D03*
D25*
X49150000Y-108710000D03*
D26*
X46610000Y-108710000D03*
X44070000Y-108710000D03*
M02*
